<svg xmlns="http://www.w3.org/2000/svg" xmlns:xlink="http://www.w3.org/1999/xlink" width="1200" zoomAndPan="magnify" viewBox="0 0 900 225" height="300" preserveAspectRatio="xMidYMid meet" version="1.0"><defs><g/></defs><g fill="#000000" fill-opacity="1"><g transform="translate(108.298414, 155.249132)"><g><path d="M 69.15625 -89.4375 C 73.664062 -89.4375 77.804688 -88.503906 81.578125 -86.640625 C 85.347656 -84.773438 88.335938 -82.148438 90.546875 -78.765625 C 92.753906 -75.390625 93.859375 -71.625 93.859375 -67.46875 C 93.859375 -56.457031 88.875 -49.523438 78.90625 -46.671875 L 78.90625 -46.15625 C 90.257812 -43.550781 95.9375 -36.097656 95.9375 -23.796875 C 95.9375 -19.109375 94.785156 -14.96875 92.484375 -11.375 C 90.191406 -7.78125 87.050781 -4.984375 83.0625 -2.984375 C 79.082031 -0.992188 74.707031 0 69.9375 0 L 9.625 0 L 9.625 -89.4375 Z M 38.34375 -54.59375 L 58.109375 -54.59375 C 60.015625 -54.59375 61.59375 -55.265625 62.84375 -56.609375 C 64.101562 -57.953125 64.734375 -59.625 64.734375 -61.625 L 64.734375 -62.921875 C 64.734375 -64.828125 64.082031 -66.453125 62.78125 -67.796875 C 61.488281 -69.140625 59.929688 -69.8125 58.109375 -69.8125 L 38.34375 -69.8125 Z M 38.34375 -20.796875 L 60.1875 -20.796875 C 62.09375 -20.796875 63.671875 -21.46875 64.921875 -22.8125 C 66.179688 -24.15625 66.8125 -25.820312 66.8125 -27.8125 L 66.8125 -29.125 C 66.8125 -31.113281 66.179688 -32.78125 64.921875 -34.125 C 63.671875 -35.46875 62.09375 -36.140625 60.1875 -36.140625 L 38.34375 -36.140625 Z M 38.34375 -20.796875 "/></g></g></g><g fill="#000000" fill-opacity="1"><g transform="translate(208.135362, 155.249132)"><g><path d="M 9.625 -89.4375 L 86.96875 -89.4375 L 86.96875 -67.984375 L 38.34375 -67.984375 L 38.34375 -55.640625 L 79.953125 -55.640625 L 79.953125 -35.09375 L 38.34375 -35.09375 L 38.34375 -21.453125 L 87.875 -21.453125 L 87.875 0 L 9.625 0 Z M 9.625 -89.4375 "/></g></g></g><g fill="#000000" fill-opacity="1"><g transform="translate(300.69254, 155.249132)"><g><path d="M 9.625 -89.4375 L 38.34375 -89.4375 L 38.34375 -22.875 L 84.234375 -22.875 L 84.234375 0 L 9.625 0 Z M 9.625 -89.4375 "/></g></g></g><g fill="#000000" fill-opacity="1"><g transform="translate(386.099908, 155.249132)"><g><path d="M 69.546875 0 L 65.78125 -12.609375 L 34.453125 -12.609375 L 30.6875 0 L 1.296875 0 L 33.9375 -89.4375 L 67.34375 -89.4375 L 99.96875 0 Z M 40.4375 -32.625 L 59.796875 -32.625 L 50.4375 -64.484375 L 49.921875 -64.484375 Z M 40.4375 -32.625 "/></g></g></g><g fill="#000000" fill-opacity="1"><g transform="translate(485.936856, 155.249132)"><g><path d="M 94.515625 -62.015625 C 94.515625 -56.546875 93.039062 -51.601562 90.09375 -47.1875 C 87.144531 -42.769531 82.851562 -39.519531 77.21875 -37.4375 L 97.109375 0 L 64.875 0 L 49.015625 -32.625 L 38.34375 -32.625 L 38.34375 0 L 9.625 0 L 9.625 -89.4375 L 64.34375 -89.4375 C 70.757812 -89.4375 76.242188 -88.203125 80.796875 -85.734375 C 85.347656 -83.265625 88.769531 -79.925781 91.0625 -75.71875 C 93.363281 -71.519531 94.515625 -66.953125 94.515625 -62.015625 Z M 65.265625 -60.84375 C 65.265625 -63.175781 64.484375 -65.125 62.921875 -66.6875 C 61.359375 -68.25 59.453125 -69.03125 57.203125 -69.03125 L 38.34375 -69.03125 L 38.34375 -52.515625 L 57.203125 -52.515625 C 59.453125 -52.515625 61.359375 -53.316406 62.921875 -54.921875 C 64.484375 -56.523438 65.265625 -58.5 65.265625 -60.84375 Z M 65.265625 -60.84375 "/></g></g></g><g fill="#000000" fill-opacity="1"><g transform="translate(585.773827, 155.249132)"><g><path d="M 94.515625 -62.015625 C 94.515625 -56.546875 93.039062 -51.601562 90.09375 -47.1875 C 87.144531 -42.769531 82.851562 -39.519531 77.21875 -37.4375 L 97.109375 0 L 64.875 0 L 49.015625 -32.625 L 38.34375 -32.625 L 38.34375 0 L 9.625 0 L 9.625 -89.4375 L 64.34375 -89.4375 C 70.757812 -89.4375 76.242188 -88.203125 80.796875 -85.734375 C 85.347656 -83.265625 88.769531 -79.925781 91.0625 -75.71875 C 93.363281 -71.519531 94.515625 -66.953125 94.515625 -62.015625 Z M 65.265625 -60.84375 C 65.265625 -63.175781 64.484375 -65.125 62.921875 -66.6875 C 61.359375 -68.25 59.453125 -69.03125 57.203125 -69.03125 L 38.34375 -69.03125 L 38.34375 -52.515625 L 57.203125 -52.515625 C 59.453125 -52.515625 61.359375 -53.316406 62.921875 -54.921875 C 64.484375 -56.523438 65.265625 -58.5 65.265625 -60.84375 Z M 65.265625 -60.84375 "/></g></g></g><g fill="#000000" fill-opacity="1"><g transform="translate(683.400807, 155.249132)"><g><path d="M 54.078125 -91 C 69.503906 -91 81.421875 -87.054688 89.828125 -79.171875 C 98.234375 -71.285156 102.4375 -59.800781 102.4375 -44.71875 C 102.4375 -29.632812 98.234375 -18.148438 89.828125 -10.265625 C 81.421875 -2.378906 69.503906 1.5625 54.078125 1.5625 C 38.648438 1.5625 26.753906 -2.359375 18.390625 -10.203125 C 10.023438 -18.046875 5.84375 -29.550781 5.84375 -44.71875 C 5.84375 -59.882812 10.023438 -71.390625 18.390625 -79.234375 C 26.753906 -87.078125 38.648438 -91 54.078125 -91 Z M 54.078125 -69.546875 C 47.921875 -69.546875 43.238281 -67.679688 40.03125 -63.953125 C 36.832031 -60.234375 35.234375 -55.207031 35.234375 -48.875 L 35.234375 -40.5625 C 35.234375 -34.226562 36.832031 -29.195312 40.03125 -25.46875 C 43.238281 -21.75 47.921875 -19.890625 54.078125 -19.890625 C 60.234375 -19.890625 64.9375 -21.75 68.1875 -25.46875 C 71.4375 -29.195312 73.0625 -34.226562 73.0625 -40.5625 L 73.0625 -48.875 C 73.0625 -55.207031 71.4375 -60.234375 68.1875 -63.953125 C 64.9375 -67.679688 60.234375 -69.546875 54.078125 -69.546875 Z M 54.078125 -69.546875 "/></g></g></g></svg>